<?xml version="1.0" encoding="utf-8"?>
<!-- Svg Vector Icons : http://www.onlinewebfonts.com/icon -->
<!DOCTYPE svg PUBLIC "-//W3C//DTD SVG 1.1//EN" "http://www.w3.org/Graphics/SVG/1.1/DTD/svg11.dtd">
<svg version="1.1" xmlns="http://www.w3.org/2000/svg" xmlns:xlink="http://www.w3.org/1999/xlink" x="0px" y="0px" viewBox="0 0 1000 1000" enable-background="new 0 0 1000 1000" xml:space="preserve">
<metadata> Svg Vector Icons : http://www.onlinewebfonts.com/icon </metadata>
<g><g><path d="M630.8,540.2c-9.7-9.7-15.8-23.3-15.8-38.2c0-29.9,24.2-54,54-54h136.7l-73.3-73.3c-21.1-21.1-21.1-55.3,0-76.4s55.3-21.1,76.4,0l165.6,165.6l0.1,0.1c6.3,6.3,11,14.1,13.5,22.7c0,0,0,0,0,0.1c3.1,10.6,2.8,22.1-0.6,32.5c-2.7,7.9-7.2,15.1-13,21L808.5,705.8c-21.1,21.1-55.3,21.1-76.4,0c-21.1-21.1-21.1-55.3,0-76.4l73.3-73.3H668.9C654.1,556,640.5,549.9,630.8,540.2z"/><path d="M369,540.2c9.7-9.7,15.8-23.3,15.8-38.2c0-29.9-24.2-54-54-54H194.2l73.3-73.3c21.1-21.1,21.1-55.3,0-76.4c-21.1-21.1-55.3-21.1-76.4,0L25.7,463.8l-0.1,0.1c-6.3,6.3-11,14.1-13.5,22.7c0,0,0,0,0,0.1c-3.1,10.6-2.8,22.1,0.6,32.5c2.7,7.9,7.2,15.1,13,21l165.6,165.6c21.1,21.1,55.3,21.1,76.4,0c21.1-21.1,21.1-55.3,0-76.4L194.2,556h136.7C345.7,556,359.3,549.9,369,540.2z"/><path d="M568.6,918.1V82c0-38-30.7-68.7-68.7-68.7c-38,0-68.7,30.7-68.7,68.7V918c0,38,30.7,68.7,68.7,68.7C537.9,986.7,568.6,956,568.6,918.1z"/></g><g></g><g></g><g></g><g></g><g></g><g></g><g></g><g></g><g></g><g></g><g></g><g></g><g></g><g></g><g></g></g>
</svg>